<svg width="500" height="90" viewBox="0 0 72 13" fill="none" xmlns="http://www.w3.org/2000/svg">
<path d="M20.16 5.37066H21.816V6.71466H20.16V11.1667H18.72V5.17866C18.72 4.75466 18.788 4.35466 18.924 3.97866C19.06 3.60266 19.26 3.27866 19.524 3.00666C19.788 2.72666 20.112 2.50666 20.496 2.34666C20.88 2.18666 21.32 2.10666 21.816 2.10666C21.904 2.10666 21.992 2.11466 22.08 2.13066C22.168 2.13866 22.256 2.15066 22.344 2.16666V3.55866C22.264 3.54266 22.188 3.53066 22.116 3.52266C22.044 3.50666 21.968 3.49866 21.888 3.49866C21.56 3.49866 21.284 3.54266 21.06 3.63066C20.844 3.71866 20.668 3.83866 20.532 3.99066C20.396 4.13466 20.3 4.31066 20.244 4.51866C20.188 4.71866 20.16 4.93466 20.16 5.16666V5.37066ZM22.579 8.15466C22.579 7.73866 22.647 7.34666 22.783 6.97866C22.919 6.60266 23.119 6.27866 23.383 6.00666C23.647 5.72666 23.971 5.50666 24.355 5.34666C24.739 5.18666 25.175 5.10666 25.663 5.10666C26.119 5.10666 26.531 5.17866 26.899 5.32266C27.267 5.46666 27.579 5.67066 27.835 5.93466C28.099 6.19866 28.303 6.52266 28.447 6.90666C28.599 7.28266 28.683 7.70266 28.699 8.16666C28.707 8.31866 28.711 8.50666 28.711 8.73066C28.711 8.94666 28.723 9.18666 28.747 9.45066C28.771 9.71466 28.815 9.99466 28.879 10.2907C28.943 10.5787 29.043 10.8707 29.179 11.1667H27.739C27.603 10.8707 27.503 10.5627 27.439 10.2427C27.231 10.5467 26.967 10.7867 26.647 10.9627C26.327 11.1387 25.943 11.2267 25.495 11.2267C25.071 11.2267 24.679 11.1467 24.319 10.9867C23.959 10.8267 23.651 10.6107 23.395 10.3387C23.139 10.0587 22.939 9.73466 22.795 9.36666C22.651 8.99066 22.579 8.58666 22.579 8.15466ZM25.663 6.45066C25.367 6.45066 25.115 6.49466 24.907 6.58266C24.699 6.67066 24.527 6.79466 24.391 6.95466C24.263 7.10666 24.167 7.28666 24.103 7.49466C24.047 7.70266 24.019 7.92666 24.019 8.16666C24.019 8.40666 24.047 8.63066 24.103 8.83866C24.167 9.04666 24.263 9.23066 24.391 9.39066C24.527 9.54266 24.699 9.66266 24.907 9.75066C25.115 9.83866 25.367 9.88266 25.663 9.88266C26.159 9.88266 26.547 9.74666 26.827 9.47466C27.115 9.19466 27.259 8.75866 27.259 8.16666C27.235 7.63866 27.099 7.22266 26.851 6.91866C26.603 6.60666 26.207 6.45066 25.663 6.45066ZM33.3381 5.10666C33.7621 5.10666 34.1501 5.18666 34.5021 5.34666C34.8621 5.50666 35.1701 5.72666 35.4261 6.00666C35.6901 6.27866 35.8941 6.60266 36.0381 6.97866C36.1821 7.34666 36.2541 7.74666 36.2541 8.17866C36.2541 8.57866 36.1901 8.96266 36.0621 9.33066C35.9341 9.69866 35.7381 10.0227 35.4741 10.3027C35.2181 10.5827 34.8981 10.8067 34.5141 10.9747C34.1301 11.1427 33.6861 11.2267 33.1821 11.2267C32.6861 11.2267 32.2501 11.1467 31.8741 10.9867C31.4981 10.8267 31.1781 10.6107 30.9141 10.3387C30.6581 10.0587 30.4621 9.73466 30.3261 9.36666C30.1981 8.99066 30.1341 8.59066 30.1341 8.16666V2.76666H31.5741V5.86266C31.7821 5.63066 32.0301 5.44666 32.3181 5.31066C32.6061 5.17466 32.9461 5.10666 33.3381 5.10666ZM34.8141 8.16666C34.8141 7.92666 34.7821 7.70266 34.7181 7.49466C34.6621 7.28666 34.5661 7.10666 34.4301 6.95466C34.3021 6.79466 34.1341 6.67066 33.9261 6.58266C33.7181 6.49466 33.4661 6.45066 33.1701 6.45066C32.6741 6.45066 32.2821 6.59066 31.9941 6.87066C31.7141 7.14266 31.5741 7.57466 31.5741 8.16666C31.5741 8.75866 31.7141 9.19466 31.9941 9.47466C32.2821 9.74666 32.6741 9.88266 33.1701 9.88266C33.4661 9.88266 33.7181 9.83866 33.9261 9.75066C34.1341 9.66266 34.3021 9.54266 34.4301 9.39066C34.5661 9.23066 34.6621 9.04666 34.7181 8.83866C34.7821 8.63066 34.8141 8.40666 34.8141 8.16666ZM38.7694 11.1667H37.3294V8.17866C37.3294 7.75466 37.3974 7.35466 37.5334 6.97866C37.6694 6.60266 37.8694 6.27866 38.1334 6.00666C38.3974 5.72666 38.7214 5.50666 39.1054 5.34666C39.4894 5.18666 39.9294 5.10666 40.4254 5.10666C40.5134 5.10666 40.6014 5.11466 40.6894 5.13066C40.7774 5.13866 40.8654 5.15066 40.9534 5.16666V6.55866C40.8734 6.54266 40.7974 6.53066 40.7254 6.52266C40.6534 6.50666 40.5774 6.49866 40.4974 6.49866C40.1694 6.49866 39.8934 6.54266 39.6694 6.63066C39.4534 6.71866 39.2774 6.83866 39.1414 6.99066C39.0054 7.13466 38.9094 7.31066 38.8534 7.51866C38.7974 7.71866 38.7694 7.93466 38.7694 8.16666V11.1667ZM41.3993 8.15466C41.3993 7.73866 41.4673 7.34666 41.6033 6.97866C41.7393 6.60266 41.9393 6.27866 42.2033 6.00666C42.4673 5.72666 42.7913 5.50666 43.1753 5.34666C43.5593 5.18666 43.9953 5.10666 44.4833 5.10666C44.9393 5.10666 45.3513 5.17866 45.7193 5.32266C46.0873 5.46666 46.3993 5.67066 46.6553 5.93466C46.9193 6.19866 47.1233 6.52266 47.2673 6.90666C47.4193 7.28266 47.5033 7.70266 47.5193 8.16666C47.5273 8.31866 47.5313 8.50666 47.5313 8.73066C47.5313 8.94666 47.5433 9.18666 47.5673 9.45066C47.5913 9.71466 47.6353 9.99466 47.6993 10.2907C47.7633 10.5787 47.8633 10.8707 47.9993 11.1667H46.5593C46.4233 10.8707 46.3233 10.5627 46.2593 10.2427C46.0513 10.5467 45.7873 10.7867 45.4673 10.9627C45.1473 11.1387 44.7633 11.2267 44.3153 11.2267C43.8913 11.2267 43.4993 11.1467 43.1393 10.9867C42.7793 10.8267 42.4713 10.6107 42.2153 10.3387C41.9593 10.0587 41.7593 9.73466 41.6153 9.36666C41.4713 8.99066 41.3993 8.58666 41.3993 8.15466ZM44.4833 6.45066C44.1873 6.45066 43.9353 6.49466 43.7273 6.58266C43.5193 6.67066 43.3473 6.79466 43.2113 6.95466C43.0833 7.10666 42.9873 7.28666 42.9233 7.49466C42.8673 7.70266 42.8393 7.92666 42.8393 8.16666C42.8393 8.40666 42.8673 8.63066 42.9233 8.83866C42.9873 9.04666 43.0833 9.23066 43.2113 9.39066C43.3473 9.54266 43.5193 9.66266 43.7273 9.75066C43.9353 9.83866 44.1873 9.88266 44.4833 9.88266C44.9793 9.88266 45.3673 9.74666 45.6473 9.47466C45.9353 9.19466 46.0793 8.75866 46.0793 8.16666C46.0553 7.63866 45.9193 7.22266 45.6713 6.91866C45.4233 6.60666 45.0273 6.45066 44.4833 6.45066ZM49.0744 10.3147C49.0744 10.0587 49.1544 9.84266 49.3144 9.66666C49.4824 9.48266 49.7104 9.39066 49.9984 9.39066C50.2864 9.39066 50.5104 9.48266 50.6704 9.66666C50.8304 9.84266 50.9104 10.0587 50.9104 10.3147C50.9104 10.5627 50.8304 10.7787 50.6704 10.9627C50.5104 11.1387 50.2864 11.2267 49.9984 11.2267C49.7104 11.2267 49.4824 11.1387 49.3144 10.9627C49.1544 10.7867 49.0744 10.5707 49.0744 10.3147ZM56.802 2.76666H58.242V8.16666C58.242 8.59066 58.174 8.99066 58.038 9.36666C57.91 9.73466 57.714 10.0587 57.45 10.3387C57.194 10.6107 56.874 10.8267 56.49 10.9867C56.114 11.1467 55.682 11.2267 55.194 11.2267C54.69 11.2267 54.246 11.1427 53.862 10.9747C53.478 10.8067 53.154 10.5827 52.89 10.3027C52.634 10.0227 52.442 9.69866 52.314 9.33066C52.186 8.96266 52.122 8.57866 52.122 8.17866C52.122 7.74666 52.194 7.34666 52.338 6.97866C52.482 6.60266 52.682 6.27866 52.938 6.00666C53.194 5.72666 53.502 5.50666 53.862 5.34666C54.222 5.18666 54.614 5.10666 55.038 5.10666C55.422 5.10666 55.758 5.17466 56.046 5.31066C56.342 5.44666 56.594 5.63066 56.802 5.86266V2.76666ZM53.562 8.16666C53.562 8.40666 53.59 8.63066 53.646 8.83866C53.71 9.04666 53.806 9.23066 53.934 9.39066C54.07 9.54266 54.242 9.66266 54.45 9.75066C54.658 9.83866 54.91 9.88266 55.206 9.88266C55.702 9.88266 56.09 9.74666 56.37 9.47466C56.658 9.19466 56.802 8.75866 56.802 8.16666C56.802 7.57466 56.658 7.14266 56.37 6.87066C56.09 6.59066 55.702 6.45066 55.206 6.45066C54.91 6.45066 54.658 6.49466 54.45 6.58266C54.242 6.67066 54.07 6.79466 53.934 6.95466C53.806 7.10666 53.71 7.28666 53.646 7.49466C53.59 7.70266 53.562 7.92666 53.562 8.16666ZM62.307 9.06666C62.043 9.06666 61.771 9.03466 61.491 8.97066C61.219 8.90666 60.967 8.81866 60.735 8.70666C60.807 9.05066 60.979 9.32666 61.251 9.53466C61.531 9.74266 61.967 9.84666 62.559 9.84666C62.687 9.84666 62.835 9.84266 63.003 9.83466C63.171 9.81866 63.343 9.80266 63.519 9.78666C63.695 9.77066 63.863 9.75066 64.023 9.72666C64.183 9.69466 64.319 9.65866 64.431 9.61866V10.9747C64.287 11.0147 64.127 11.0507 63.951 11.0827C63.783 11.1147 63.611 11.1427 63.435 11.1667C63.259 11.1907 63.087 11.2067 62.919 11.2147C62.759 11.2307 62.607 11.2387 62.463 11.2387C61.927 11.2387 61.455 11.1587 61.047 10.9987C60.647 10.8387 60.311 10.6227 60.039 10.3507C59.775 10.0707 59.575 9.74666 59.439 9.37866C59.311 9.00266 59.247 8.60666 59.247 8.19066C59.247 7.75866 59.315 7.35866 59.451 6.99066C59.587 6.61466 59.783 6.28666 60.039 6.00666C60.303 5.72666 60.623 5.50666 60.999 5.34666C61.383 5.18666 61.819 5.10666 62.307 5.10666C62.675 5.10666 63.015 5.15466 63.327 5.25066C63.639 5.34666 63.907 5.48266 64.131 5.65866C64.363 5.83466 64.539 6.04266 64.659 6.28266C64.787 6.52266 64.851 6.79066 64.851 7.08666C64.851 7.38266 64.787 7.65466 64.659 7.90266C64.539 8.14266 64.367 8.35066 64.143 8.52666C63.919 8.69466 63.651 8.82666 63.339 8.92266C63.027 9.01866 62.683 9.06666 62.307 9.06666ZM62.319 7.67466C62.655 7.67466 62.919 7.62666 63.111 7.53066C63.303 7.42666 63.399 7.27866 63.399 7.08666C63.399 6.89466 63.303 6.75066 63.111 6.65466C62.927 6.55066 62.675 6.49866 62.355 6.49866C61.931 6.49866 61.595 6.58266 61.347 6.75066C61.107 6.91066 60.931 7.12666 60.819 7.39866C61.035 7.48666 61.275 7.55466 61.539 7.60266C61.811 7.65066 62.071 7.67466 62.319 7.67466ZM68.4111 9.66666L70.2111 5.16666H71.6511L69.1311 11.1667H67.6911L65.1711 5.16666H66.6111L68.4111 9.66666Z" fill="white"/>
<path d="M0.91 6.1L5.317 3.019V3.994L1.95 6.347L5.317 8.713V9.675L0.91 6.594V6.1ZM5.9997 11.3L9.2497 2.044H10.1597L6.9097 11.3H5.9997ZM15.3717 6.594L10.9647 9.675V8.713L14.3317 6.347L10.9647 3.994V3.019L15.3717 6.1V6.594Z" fill="white"/>
</svg>
